<?xml version="1.0" encoding="utf-8" standalone="no"?>
<!DOCTYPE svg PUBLIC "-//W3C//DTD SVG 1.1//EN"
  "http://www.w3.org/Graphics/SVG/1.1/DTD/svg11.dtd">
<!-- Created with matplotlib (https://matplotlib.org/) -->
<svg height="360pt" version="1.1" viewBox="0 0 720 360" width="720pt" xmlns="http://www.w3.org/2000/svg" xmlns:xlink="http://www.w3.org/1999/xlink">
 <metadata>
  <rdf:RDF xmlns:cc="http://creativecommons.org/ns#" xmlns:dc="http://purl.org/dc/elements/1.1/" xmlns:rdf="http://www.w3.org/1999/02/22-rdf-syntax-ns#">
   <cc:Work>
    <dc:type rdf:resource="http://purl.org/dc/dcmitype/StillImage"/>
    <dc:date>2022-09-06T11:59:28.841619</dc:date>
    <dc:format>image/svg+xml</dc:format>
    <dc:creator>
     <cc:Agent>
      <dc:title>Matplotlib v3.3.2, https://matplotlib.org/</dc:title>
     </cc:Agent>
    </dc:creator>
   </cc:Work>
  </rdf:RDF>
 </metadata>
 <defs>
  <style type="text/css">*{stroke-linecap:butt;stroke-linejoin:round;}</style>
 </defs>
 <g id="figure_1">
  <g id="patch_1">
   <path d="M 0 360 
L 720 360 
L 720 0 
L 0 0 
z
" style="fill:#ffffff;"/>
  </g>
  <g id="axes_1">
   <g id="patch_2">
    <path d="M 70.28 303.58 
L 325.44 303.58 
L 325.44 97.44 
L 70.28 97.44 
z
" style="fill:#ffffff;"/>
   </g>
   <g id="matplotlib.axis_1">
    <g id="xtick_1">
     <g id="line2d_1">
      <path clip-path="url(#pdddeaba5d4)" d="M 70.28 303.58 
L 70.28 97.44 
" style="fill:none;stroke:#cccccc;stroke-linecap:round;stroke-width:1.5;"/>
     </g>
     <g id="text_1">
      <!-- 0 -->
      <g style="fill:#262626;" transform="translate(62.00875 335.835938)scale(0.26 -0.26)">
       <defs>
        <path d="M 31.78125 66.40625 
Q 24.171875 66.40625 20.328125 58.90625 
Q 16.5 51.421875 16.5 36.375 
Q 16.5 21.390625 20.328125 13.890625 
Q 24.171875 6.390625 31.78125 6.390625 
Q 39.453125 6.390625 43.28125 13.890625 
Q 47.125 21.390625 47.125 36.375 
Q 47.125 51.421875 43.28125 58.90625 
Q 39.453125 66.40625 31.78125 66.40625 
z
M 31.78125 74.21875 
Q 44.046875 74.21875 50.515625 64.515625 
Q 56.984375 54.828125 56.984375 36.375 
Q 56.984375 17.96875 50.515625 8.265625 
Q 44.046875 -1.421875 31.78125 -1.421875 
Q 19.53125 -1.421875 13.0625 8.265625 
Q 6.59375 17.96875 6.59375 36.375 
Q 6.59375 54.828125 13.0625 64.515625 
Q 19.53125 74.21875 31.78125 74.21875 
z
" id="DejaVuSans-48"/>
       </defs>
       <use xlink:href="#DejaVuSans-48"/>
      </g>
     </g>
    </g>
    <g id="xtick_2">
     <g id="line2d_2">
      <path clip-path="url(#pdddeaba5d4)" d="M 197.86 303.58 
L 197.86 97.44 
" style="fill:none;stroke:#cccccc;stroke-linecap:round;stroke-width:1.5;"/>
     </g>
     <g id="text_2">
      <!-- 50 -->
      <g style="fill:#262626;" transform="translate(181.3175 335.835938)scale(0.26 -0.26)">
       <defs>
        <path d="M 10.796875 72.90625 
L 49.515625 72.90625 
L 49.515625 64.59375 
L 19.828125 64.59375 
L 19.828125 46.734375 
Q 21.96875 47.46875 24.109375 47.828125 
Q 26.265625 48.1875 28.421875 48.1875 
Q 40.625 48.1875 47.75 41.5 
Q 54.890625 34.8125 54.890625 23.390625 
Q 54.890625 11.625 47.5625 5.09375 
Q 40.234375 -1.421875 26.90625 -1.421875 
Q 22.3125 -1.421875 17.546875 -0.640625 
Q 12.796875 0.140625 7.71875 1.703125 
L 7.71875 11.625 
Q 12.109375 9.234375 16.796875 8.0625 
Q 21.484375 6.890625 26.703125 6.890625 
Q 35.15625 6.890625 40.078125 11.328125 
Q 45.015625 15.765625 45.015625 23.390625 
Q 45.015625 31 40.078125 35.4375 
Q 35.15625 39.890625 26.703125 39.890625 
Q 22.75 39.890625 18.8125 39.015625 
Q 14.890625 38.140625 10.796875 36.28125 
z
" id="DejaVuSans-53"/>
       </defs>
       <use xlink:href="#DejaVuSans-53"/>
       <use x="63.623047" xlink:href="#DejaVuSans-48"/>
      </g>
     </g>
    </g>
    <g id="xtick_3">
     <g id="line2d_3">
      <path clip-path="url(#pdddeaba5d4)" d="M 325.44 303.58 
L 325.44 97.44 
" style="fill:none;stroke:#cccccc;stroke-linecap:round;stroke-width:1.5;"/>
     </g>
     <g id="text_3">
      <!-- 100 -->
      <g style="fill:#262626;" transform="translate(300.62625 335.835938)scale(0.26 -0.26)">
       <defs>
        <path d="M 12.40625 8.296875 
L 28.515625 8.296875 
L 28.515625 63.921875 
L 10.984375 60.40625 
L 10.984375 69.390625 
L 28.421875 72.90625 
L 38.28125 72.90625 
L 38.28125 8.296875 
L 54.390625 8.296875 
L 54.390625 0 
L 12.40625 0 
z
" id="DejaVuSans-49"/>
       </defs>
       <use xlink:href="#DejaVuSans-49"/>
       <use x="63.623047" xlink:href="#DejaVuSans-48"/>
       <use x="127.246094" xlink:href="#DejaVuSans-48"/>
      </g>
     </g>
    </g>
   </g>
   <g id="matplotlib.axis_2">
    <g id="ytick_1">
     <g id="line2d_4">
      <path clip-path="url(#pdddeaba5d4)" d="M 70.28 269.223333 
L 325.44 269.223333 
" style="fill:none;stroke:#cccccc;stroke-linecap:round;stroke-width:1.5;"/>
     </g>
     <g id="text_4">
      <!-- −1 -->
      <g style="fill:#262626;" transform="translate(19.450313 279.101302)scale(0.26 -0.26)">
       <defs>
        <path d="M 10.59375 35.5 
L 73.1875 35.5 
L 73.1875 27.203125 
L 10.59375 27.203125 
z
" id="DejaVuSans-8722"/>
       </defs>
       <use xlink:href="#DejaVuSans-8722"/>
       <use x="83.789062" xlink:href="#DejaVuSans-49"/>
      </g>
     </g>
    </g>
    <g id="ytick_2">
     <g id="line2d_5">
      <path clip-path="url(#pdddeaba5d4)" d="M 70.28 200.51 
L 325.44 200.51 
" style="fill:none;stroke:#cccccc;stroke-linecap:round;stroke-width:1.5;"/>
     </g>
     <g id="text_5">
      <!-- 0 -->
      <g style="fill:#262626;" transform="translate(41.2375 210.387969)scale(0.26 -0.26)">
       <use xlink:href="#DejaVuSans-48"/>
      </g>
     </g>
    </g>
    <g id="ytick_3">
     <g id="line2d_6">
      <path clip-path="url(#pdddeaba5d4)" d="M 70.28 131.796667 
L 325.44 131.796667 
" style="fill:none;stroke:#cccccc;stroke-linecap:round;stroke-width:1.5;"/>
     </g>
     <g id="text_6">
      <!-- 1 -->
      <g style="fill:#262626;" transform="translate(41.2375 141.674635)scale(0.26 -0.26)">
       <use xlink:href="#DejaVuSans-49"/>
      </g>
     </g>
    </g>
   </g>
   <g id="line2d_7">
    <path clip-path="url(#pdddeaba5d4)" d="M 70.28 200.51 
L 94.323348 200.399272 
L 95.57423 200.222441 
L 96.109966 200.424421 
L 96.872456 200.995313 
L 97.774487 201.625537 
L 98.108388 201.576711 
L 98.427338 201.291267 
L 98.828517 200.591722 
L 99.511269 198.863337 
L 100.258808 197.128051 
L 100.537889 196.939065 
L 100.73225 197.058162 
L 100.973954 197.51701 
L 101.27297 198.621972 
L 101.66169 201.037836 
L 102.765556 208.449801 
L 102.957424 208.612027 
L 103.336177 208.63978 
L 103.523062 209.049481 
L 104.138536 210.604787 
L 104.223257 210.480456 
L 104.340371 209.73947 
L 104.507322 206.966604 
L 104.734075 198.866 
L 105.107845 175.438348 
L 105.685942 142.76002 
L 105.778138 141.775044 
L 105.827974 142.090956 
L 105.930138 144.821749 
L 106.107055 156.784995 
L 106.430989 197.074167 
L 107.15361 286.770225 
L 107.270725 289.480817 
L 107.313085 289.094812 
L 107.415249 285.284191 
L 107.617084 267.638645 
L 108.043182 206.094084 
L 108.541541 146.357744 
L 108.74836 140.270232 
L 108.750852 140.271406 
L 108.785737 140.457249 
L 108.882917 142.51424 
L 109.082261 152.399513 
L 110.128816 212.77767 
L 110.240946 213.276948 
L 110.283307 213.208203 
L 110.402913 212.469793 
L 110.858912 207.606945 
L 111.200288 205.066383 
L 111.344813 204.884816 
L 111.372222 204.90229 
L 111.506779 205.177686 
L 111.878057 205.938545 
L 111.885532 205.935503 
L 112.022581 205.749184 
L 112.254318 204.975339 
L 112.640547 202.709181 
L 113.360676 198.531193 
L 113.669659 197.924342 
L 113.898904 197.86488 
L 114.118182 198.066482 
L 114.531821 198.83395 
L 115.331688 200.260379 
L 115.867424 200.745835 
L 116.390701 200.932913 
L 116.941388 200.896941 
L 118.967219 200.472217 
L 121.207345 200.508756 
L 144.2764 200.51 
L 144.2764 200.51 
" style="fill:none;stroke:#4c72b0;stroke-linecap:round;stroke-width:2.25;"/>
   </g>
   <g id="patch_3">
    <path d="M 70.28 303.58 
L 70.28 97.44 
" style="fill:none;stroke:#262626;stroke-linecap:square;stroke-linejoin:miter;stroke-width:1.875;"/>
   </g>
   <g id="patch_4">
    <path d="M 325.44 303.58 
L 325.44 97.44 
" style="fill:none;stroke:#262626;stroke-linecap:square;stroke-linejoin:miter;stroke-width:1.875;"/>
   </g>
   <g id="patch_5">
    <path d="M 70.28 303.58 
L 325.44 303.58 
" style="fill:none;stroke:#262626;stroke-linecap:square;stroke-linejoin:miter;stroke-width:1.875;"/>
   </g>
   <g id="patch_6">
    <path d="M 70.28 97.44 
L 325.44 97.44 
" style="fill:none;stroke:#262626;stroke-linecap:square;stroke-linejoin:miter;stroke-width:1.875;"/>
   </g>
   <g id="text_7">
    <!-- Função Wavelet($\psi$) -->
    <g style="fill:#262626;" transform="translate(65.28 91.44)scale(0.28 -0.28)">
     <defs>
      <path d="M 9.8125 72.90625 
L 51.703125 72.90625 
L 51.703125 64.59375 
L 19.671875 64.59375 
L 19.671875 43.109375 
L 48.578125 43.109375 
L 48.578125 34.8125 
L 19.671875 34.8125 
L 19.671875 0 
L 9.8125 0 
z
" id="DejaVuSans-70"/>
      <path d="M 8.5 21.578125 
L 8.5 54.6875 
L 17.484375 54.6875 
L 17.484375 21.921875 
Q 17.484375 14.15625 20.5 10.265625 
Q 23.53125 6.390625 29.59375 6.390625 
Q 36.859375 6.390625 41.078125 11.03125 
Q 45.3125 15.671875 45.3125 23.6875 
L 45.3125 54.6875 
L 54.296875 54.6875 
L 54.296875 0 
L 45.3125 0 
L 45.3125 8.40625 
Q 42.046875 3.421875 37.71875 1 
Q 33.40625 -1.421875 27.6875 -1.421875 
Q 18.265625 -1.421875 13.375 4.4375 
Q 8.5 10.296875 8.5 21.578125 
z
M 31.109375 56 
z
" id="DejaVuSans-117"/>
      <path d="M 54.890625 33.015625 
L 54.890625 0 
L 45.90625 0 
L 45.90625 32.71875 
Q 45.90625 40.484375 42.875 44.328125 
Q 39.84375 48.1875 33.796875 48.1875 
Q 26.515625 48.1875 22.3125 43.546875 
Q 18.109375 38.921875 18.109375 30.90625 
L 18.109375 0 
L 9.078125 0 
L 9.078125 54.6875 
L 18.109375 54.6875 
L 18.109375 46.1875 
Q 21.34375 51.125 25.703125 53.5625 
Q 30.078125 56 35.796875 56 
Q 45.21875 56 50.046875 50.171875 
Q 54.890625 44.34375 54.890625 33.015625 
z
" id="DejaVuSans-110"/>
      <path d="M 48.78125 52.59375 
L 48.78125 44.1875 
Q 44.96875 46.296875 41.140625 47.34375 
Q 37.3125 48.390625 33.40625 48.390625 
Q 24.65625 48.390625 19.8125 42.84375 
Q 14.984375 37.3125 14.984375 27.296875 
Q 14.984375 17.28125 19.8125 11.734375 
Q 24.65625 6.203125 33.40625 6.203125 
Q 37.3125 6.203125 41.140625 7.25 
Q 44.96875 8.296875 48.78125 10.40625 
L 48.78125 2.09375 
Q 45.015625 0.34375 40.984375 -0.53125 
Q 36.96875 -1.421875 32.421875 -1.421875 
Q 20.0625 -1.421875 12.78125 6.34375 
Q 5.515625 14.109375 5.515625 27.296875 
Q 5.515625 40.671875 12.859375 48.328125 
Q 20.21875 56 33.015625 56 
Q 37.15625 56 41.109375 55.140625 
Q 45.0625 54.296875 48.78125 52.59375 
z
M 36.078125 0 
Q 38.765625 -3.03125 40.078125 -5.59375 
Q 41.40625 -8.15625 41.40625 -10.5 
Q 41.40625 -14.84375 38.46875 -17.0625 
Q 35.546875 -19.28125 29.78125 -19.28125 
Q 27.546875 -19.28125 25.421875 -18.984375 
Q 23.296875 -18.703125 21.1875 -18.109375 
L 21.1875 -11.71875 
Q 22.859375 -12.546875 24.65625 -12.90625 
Q 26.46875 -13.28125 28.765625 -13.28125 
Q 31.640625 -13.28125 33.109375 -12.109375 
Q 34.578125 -10.9375 34.578125 -8.6875 
Q 34.578125 -7.234375 33.515625 -5.109375 
Q 32.46875 -2.984375 30.28125 0 
z
" id="DejaVuSans-231"/>
      <path d="M 34.28125 27.484375 
Q 23.390625 27.484375 19.1875 25 
Q 14.984375 22.515625 14.984375 16.5 
Q 14.984375 11.71875 18.140625 8.90625 
Q 21.296875 6.109375 26.703125 6.109375 
Q 34.1875 6.109375 38.703125 11.40625 
Q 43.21875 16.703125 43.21875 25.484375 
L 43.21875 27.484375 
z
M 52.203125 31.203125 
L 52.203125 0 
L 43.21875 0 
L 43.21875 8.296875 
Q 40.140625 3.328125 35.546875 0.953125 
Q 30.953125 -1.421875 24.3125 -1.421875 
Q 15.921875 -1.421875 10.953125 3.296875 
Q 6 8.015625 6 15.921875 
Q 6 25.140625 12.171875 29.828125 
Q 18.359375 34.515625 30.609375 34.515625 
L 43.21875 34.515625 
L 43.21875 35.40625 
Q 43.21875 41.609375 39.140625 45 
Q 35.0625 48.390625 27.6875 48.390625 
Q 23 48.390625 18.546875 47.265625 
Q 14.109375 46.140625 10.015625 43.890625 
L 10.015625 52.203125 
Q 14.9375 54.109375 19.578125 55.046875 
Q 24.21875 56 28.609375 56 
Q 40.484375 56 46.34375 49.84375 
Q 52.203125 43.703125 52.203125 31.203125 
z
M 28.8125 66.890625 
L 26.03125 69.578125 
Q 24.953125 70.5625 24.140625 71.015625 
Q 23.34375 71.484375 22.703125 71.484375 
Q 20.84375 71.484375 19.96875 69.703125 
Q 19.09375 67.921875 19 63.921875 
L 12.890625 63.921875 
Q 12.984375 70.515625 15.46875 74.09375 
Q 17.96875 77.6875 22.40625 77.6875 
Q 24.265625 77.6875 25.828125 77 
Q 27.390625 76.3125 29.203125 74.703125 
L 31.984375 72.015625 
Q 33.0625 71.046875 33.859375 70.578125 
Q 34.671875 70.125 35.296875 70.125 
Q 37.15625 70.125 38.03125 71.90625 
Q 38.921875 73.6875 39.015625 77.6875 
L 45.125 77.6875 
Q 45.015625 71.09375 42.53125 67.5 
Q 40.046875 63.921875 35.59375 63.921875 
Q 33.734375 63.921875 32.171875 64.59375 
Q 30.609375 65.28125 28.8125 66.890625 
z
" id="DejaVuSans-227"/>
      <path d="M 30.609375 48.390625 
Q 23.390625 48.390625 19.1875 42.75 
Q 14.984375 37.109375 14.984375 27.296875 
Q 14.984375 17.484375 19.15625 11.84375 
Q 23.34375 6.203125 30.609375 6.203125 
Q 37.796875 6.203125 41.984375 11.859375 
Q 46.1875 17.53125 46.1875 27.296875 
Q 46.1875 37.015625 41.984375 42.703125 
Q 37.796875 48.390625 30.609375 48.390625 
z
M 30.609375 56 
Q 42.328125 56 49.015625 48.375 
Q 55.71875 40.765625 55.71875 27.296875 
Q 55.71875 13.875 49.015625 6.21875 
Q 42.328125 -1.421875 30.609375 -1.421875 
Q 18.84375 -1.421875 12.171875 6.21875 
Q 5.515625 13.875 5.515625 27.296875 
Q 5.515625 40.765625 12.171875 48.375 
Q 18.84375 56 30.609375 56 
z
" id="DejaVuSans-111"/>
      <path id="DejaVuSans-32"/>
      <path d="M 3.328125 72.90625 
L 13.28125 72.90625 
L 28.609375 11.28125 
L 43.890625 72.90625 
L 54.984375 72.90625 
L 70.3125 11.28125 
L 85.59375 72.90625 
L 95.609375 72.90625 
L 77.296875 0 
L 64.890625 0 
L 49.515625 63.28125 
L 33.984375 0 
L 21.578125 0 
z
" id="DejaVuSans-87"/>
      <path d="M 34.28125 27.484375 
Q 23.390625 27.484375 19.1875 25 
Q 14.984375 22.515625 14.984375 16.5 
Q 14.984375 11.71875 18.140625 8.90625 
Q 21.296875 6.109375 26.703125 6.109375 
Q 34.1875 6.109375 38.703125 11.40625 
Q 43.21875 16.703125 43.21875 25.484375 
L 43.21875 27.484375 
z
M 52.203125 31.203125 
L 52.203125 0 
L 43.21875 0 
L 43.21875 8.296875 
Q 40.140625 3.328125 35.546875 0.953125 
Q 30.953125 -1.421875 24.3125 -1.421875 
Q 15.921875 -1.421875 10.953125 3.296875 
Q 6 8.015625 6 15.921875 
Q 6 25.140625 12.171875 29.828125 
Q 18.359375 34.515625 30.609375 34.515625 
L 43.21875 34.515625 
L 43.21875 35.40625 
Q 43.21875 41.609375 39.140625 45 
Q 35.0625 48.390625 27.6875 48.390625 
Q 23 48.390625 18.546875 47.265625 
Q 14.109375 46.140625 10.015625 43.890625 
L 10.015625 52.203125 
Q 14.9375 54.109375 19.578125 55.046875 
Q 24.21875 56 28.609375 56 
Q 40.484375 56 46.34375 49.84375 
Q 52.203125 43.703125 52.203125 31.203125 
z
" id="DejaVuSans-97"/>
      <path d="M 2.984375 54.6875 
L 12.5 54.6875 
L 29.59375 8.796875 
L 46.6875 54.6875 
L 56.203125 54.6875 
L 35.6875 0 
L 23.484375 0 
z
" id="DejaVuSans-118"/>
      <path d="M 56.203125 29.59375 
L 56.203125 25.203125 
L 14.890625 25.203125 
Q 15.484375 15.921875 20.484375 11.0625 
Q 25.484375 6.203125 34.421875 6.203125 
Q 39.59375 6.203125 44.453125 7.46875 
Q 49.3125 8.734375 54.109375 11.28125 
L 54.109375 2.78125 
Q 49.265625 0.734375 44.1875 -0.34375 
Q 39.109375 -1.421875 33.890625 -1.421875 
Q 20.796875 -1.421875 13.15625 6.1875 
Q 5.515625 13.8125 5.515625 26.8125 
Q 5.515625 40.234375 12.765625 48.109375 
Q 20.015625 56 32.328125 56 
Q 43.359375 56 49.78125 48.890625 
Q 56.203125 41.796875 56.203125 29.59375 
z
M 47.21875 32.234375 
Q 47.125 39.59375 43.09375 43.984375 
Q 39.0625 48.390625 32.421875 48.390625 
Q 24.90625 48.390625 20.390625 44.140625 
Q 15.875 39.890625 15.1875 32.171875 
z
" id="DejaVuSans-101"/>
      <path d="M 9.421875 75.984375 
L 18.40625 75.984375 
L 18.40625 0 
L 9.421875 0 
z
" id="DejaVuSans-108"/>
      <path d="M 18.3125 70.21875 
L 18.3125 54.6875 
L 36.8125 54.6875 
L 36.8125 47.703125 
L 18.3125 47.703125 
L 18.3125 18.015625 
Q 18.3125 11.328125 20.140625 9.421875 
Q 21.96875 7.515625 27.59375 7.515625 
L 36.8125 7.515625 
L 36.8125 0 
L 27.59375 0 
Q 17.1875 0 13.234375 3.875 
Q 9.28125 7.765625 9.28125 18.015625 
L 9.28125 47.703125 
L 2.6875 47.703125 
L 2.6875 54.6875 
L 9.28125 54.6875 
L 9.28125 70.21875 
z
" id="DejaVuSans-116"/>
      <path d="M 31 75.875 
Q 24.46875 64.65625 21.28125 53.65625 
Q 18.109375 42.671875 18.109375 31.390625 
Q 18.109375 20.125 21.3125 9.0625 
Q 24.515625 -2 31 -13.1875 
L 23.1875 -13.1875 
Q 15.875 -1.703125 12.234375 9.375 
Q 8.59375 20.453125 8.59375 31.390625 
Q 8.59375 42.28125 12.203125 53.3125 
Q 15.828125 64.359375 23.1875 75.875 
z
" id="DejaVuSans-40"/>
      <path d="M 24.859375 -1.21875 
Q 13.921875 0.59375 9.625 5.328125 
Q 4.34375 11.140625 6.640625 23 
L 12.796875 54.6875 
L 21.875 54.6875 
L 15.765625 23.34375 
Q 14.0625 14.40625 17.484375 10.6875 
Q 20.515625 7.46875 26.421875 6.78125 
L 35.6875 54.6875 
L 44.625 54.6875 
L 35.359375 6.84375 
Q 41.890625 7.515625 45.75 10.75 
Q 50.734375 14.84375 52.390625 23.390625 
L 58.453125 54.6875 
L 67.53125 54.6875 
L 61.375 23.046875 
Q 58.984375 10.75 51.5625 5.375 
Q 44.875 0.53125 33.796875 -1.171875 
L 29.984375 -20.796875 
L 21.046875 -20.796875 
z
" id="DejaVuSans-Oblique-968"/>
      <path d="M 8.015625 75.875 
L 15.828125 75.875 
Q 23.140625 64.359375 26.78125 53.3125 
Q 30.421875 42.28125 30.421875 31.390625 
Q 30.421875 20.453125 26.78125 9.375 
Q 23.140625 -1.703125 15.828125 -13.1875 
L 8.015625 -13.1875 
Q 14.5 -2 17.703125 9.0625 
Q 20.90625 20.125 20.90625 31.390625 
Q 20.90625 42.671875 17.703125 53.65625 
Q 14.5 64.65625 8.015625 75.875 
z
" id="DejaVuSans-41"/>
     </defs>
     <use transform="translate(0 0.3125)" xlink:href="#DejaVuSans-70"/>
     <use transform="translate(57.519531 0.3125)" xlink:href="#DejaVuSans-117"/>
     <use transform="translate(120.898438 0.3125)" xlink:href="#DejaVuSans-110"/>
     <use transform="translate(184.277344 0.3125)" xlink:href="#DejaVuSans-231"/>
     <use transform="translate(239.257812 0.3125)" xlink:href="#DejaVuSans-227"/>
     <use transform="translate(300.537109 0.3125)" xlink:href="#DejaVuSans-111"/>
     <use transform="translate(361.71875 0.3125)" xlink:href="#DejaVuSans-32"/>
     <use transform="translate(393.505859 0.3125)" xlink:href="#DejaVuSans-87"/>
     <use transform="translate(492.382812 0.3125)" xlink:href="#DejaVuSans-97"/>
     <use transform="translate(553.662109 0.3125)" xlink:href="#DejaVuSans-118"/>
     <use transform="translate(612.841797 0.3125)" xlink:href="#DejaVuSans-101"/>
     <use transform="translate(674.365234 0.3125)" xlink:href="#DejaVuSans-108"/>
     <use transform="translate(702.148438 0.3125)" xlink:href="#DejaVuSans-101"/>
     <use transform="translate(763.671875 0.3125)" xlink:href="#DejaVuSans-116"/>
     <use transform="translate(802.880859 0.3125)" xlink:href="#DejaVuSans-40"/>
     <use transform="translate(841.894531 0.3125)" xlink:href="#DejaVuSans-Oblique-968"/>
     <use transform="translate(907.861328 0.3125)" xlink:href="#DejaVuSans-41"/>
    </g>
   </g>
  </g>
  <g id="axes_2">
   <g id="patch_7">
    <path d="M 445.4 303.58 
L 700.56 303.58 
L 700.56 97.44 
L 445.4 97.44 
z
" style="fill:#ffffff;"/>
   </g>
   <g id="matplotlib.axis_3"/>
   <g id="matplotlib.axis_4">
    <g id="ytick_4">
     <g id="line2d_8">
      <path clip-path="url(#pf1251b25bc)" d="M 445.4 264.92875 
L 700.56 264.92875 
" style="fill:none;stroke:#cccccc;stroke-linecap:round;stroke-width:1.5;"/>
     </g>
     <g id="text_8">
      <!-- −0.5 -->
      <g style="fill:#262626;" transform="translate(369.764687 274.806719)scale(0.26 -0.26)">
       <defs>
        <path d="M 10.6875 12.40625 
L 21 12.40625 
L 21 0 
L 10.6875 0 
z
" id="DejaVuSans-46"/>
       </defs>
       <use xlink:href="#DejaVuSans-8722"/>
       <use x="83.789062" xlink:href="#DejaVuSans-48"/>
       <use x="147.412109" xlink:href="#DejaVuSans-46"/>
       <use x="179.199219" xlink:href="#DejaVuSans-53"/>
      </g>
     </g>
    </g>
    <g id="ytick_5">
     <g id="line2d_9">
      <path clip-path="url(#pf1251b25bc)" d="M 445.4 200.51 
L 700.56 200.51 
" style="fill:none;stroke:#cccccc;stroke-linecap:round;stroke-width:1.5;"/>
     </g>
     <g id="text_9">
      <!-- 0.0 -->
      <g style="fill:#262626;" transform="translate(391.551875 210.387969)scale(0.26 -0.26)">
       <use xlink:href="#DejaVuSans-48"/>
       <use x="63.623047" xlink:href="#DejaVuSans-46"/>
       <use x="95.410156" xlink:href="#DejaVuSans-48"/>
      </g>
     </g>
    </g>
    <g id="ytick_6">
     <g id="line2d_10">
      <path clip-path="url(#pf1251b25bc)" d="M 445.4 136.09125 
L 700.56 136.09125 
" style="fill:none;stroke:#cccccc;stroke-linecap:round;stroke-width:1.5;"/>
     </g>
     <g id="text_10">
      <!-- 0.5 -->
      <g style="fill:#262626;" transform="translate(391.551875 145.969219)scale(0.26 -0.26)">
       <use xlink:href="#DejaVuSans-48"/>
       <use x="63.623047" xlink:href="#DejaVuSans-46"/>
       <use x="95.410156" xlink:href="#DejaVuSans-53"/>
      </g>
     </g>
    </g>
   </g>
   <g id="LineCollection_1">
    <path clip-path="url(#pf1251b25bc)" d="M 456.998182 200.51 
L 456.998182 200.482676 
" style="fill:none;stroke:#4c72b0;stroke-width:2.25;"/>
    <path clip-path="url(#pf1251b25bc)" d="M 464.996928 200.51 
L 464.996928 200.463802 
" style="fill:none;stroke:#4c72b0;stroke-width:2.25;"/>
    <path clip-path="url(#pf1251b25bc)" d="M 472.995674 200.51 
L 472.995674 200.790646 
" style="fill:none;stroke:#4c72b0;stroke-width:2.25;"/>
    <path clip-path="url(#pf1251b25bc)" d="M 480.99442 200.51 
L 480.99442 201.045875 
" style="fill:none;stroke:#4c72b0;stroke-width:2.25;"/>
    <path clip-path="url(#pf1251b25bc)" d="M 488.993166 200.51 
L 488.993166 199.204672 
" style="fill:none;stroke:#4c72b0;stroke-width:2.25;"/>
    <path clip-path="url(#pf1251b25bc)" d="M 496.991912 200.51 
L 496.991912 197.49413 
" style="fill:none;stroke:#4c72b0;stroke-width:2.25;"/>
    <path clip-path="url(#pf1251b25bc)" d="M 504.990658 200.51 
L 504.990658 204.139319 
" style="fill:none;stroke:#4c72b0;stroke-width:2.25;"/>
    <path clip-path="url(#pf1251b25bc)" d="M 512.989404 200.51 
L 512.989404 212.352948 
" style="fill:none;stroke:#4c72b0;stroke-width:2.25;"/>
    <path clip-path="url(#pf1251b25bc)" d="M 520.98815 200.51 
L 520.98815 193.804437 
" style="fill:none;stroke:#4c72b0;stroke-width:2.25;"/>
    <path clip-path="url(#pf1251b25bc)" d="M 528.986897 200.51 
L 528.986897 146.195812 
" style="fill:none;stroke:#4c72b0;stroke-width:2.25;"/>
    <path clip-path="url(#pf1251b25bc)" d="M 536.985643 200.51 
L 536.985643 300.268055 
" style="fill:none;stroke:#4c72b0;stroke-width:2.25;"/>
    <path clip-path="url(#pf1251b25bc)" d="M 544.984389 200.51 
L 544.984389 144.081455 
" style="fill:none;stroke:#4c72b0;stroke-width:2.25;"/>
    <path clip-path="url(#pf1251b25bc)" d="M 552.983135 200.51 
L 552.983135 192.517211 
" style="fill:none;stroke:#4c72b0;stroke-width:2.25;"/>
    <path clip-path="url(#pf1251b25bc)" d="M 560.981881 200.51 
L 560.981881 214.110493 
" style="fill:none;stroke:#4c72b0;stroke-width:2.25;"/>
    <path clip-path="url(#pf1251b25bc)" d="M 568.980627 200.51 
L 568.980627 205.829382 
" style="fill:none;stroke:#4c72b0;stroke-width:2.25;"/>
    <path clip-path="url(#pf1251b25bc)" d="M 576.979373 200.51 
L 576.979373 196.300261 
" style="fill:none;stroke:#4c72b0;stroke-width:2.25;"/>
    <path clip-path="url(#pf1251b25bc)" d="M 584.978119 200.51 
L 584.978119 197.964378 
" style="fill:none;stroke:#4c72b0;stroke-width:2.25;"/>
    <path clip-path="url(#pf1251b25bc)" d="M 592.976865 200.51 
L 592.976865 201.690088 
" style="fill:none;stroke:#4c72b0;stroke-width:2.25;"/>
    <path clip-path="url(#pf1251b25bc)" d="M 600.975611 200.51 
L 600.975611 201.381137 
" style="fill:none;stroke:#4c72b0;stroke-width:2.25;"/>
    <path clip-path="url(#pf1251b25bc)" d="M 608.974357 200.51 
L 608.974357 200.196722 
" style="fill:none;stroke:#4c72b0;stroke-width:2.25;"/>
    <path clip-path="url(#pf1251b25bc)" d="M 616.973103 200.51 
L 616.973103 200.29592 
" style="fill:none;stroke:#4c72b0;stroke-width:2.25;"/>
    <path clip-path="url(#pf1251b25bc)" d="M 624.97185 200.51 
L 624.97185 200.592141 
" style="fill:none;stroke:#4c72b0;stroke-width:2.25;"/>
    <path clip-path="url(#pf1251b25bc)" d="M 632.970596 200.51 
L 632.970596 200.548891 
" style="fill:none;stroke:#4c72b0;stroke-width:2.25;"/>
    <path clip-path="url(#pf1251b25bc)" d="M 640.969342 200.51 
L 640.969342 200.491917 
" style="fill:none;stroke:#4c72b0;stroke-width:2.25;"/>
    <path clip-path="url(#pf1251b25bc)" d="M 648.968088 200.51 
L 648.968088 200.504689 
" style="fill:none;stroke:#4c72b0;stroke-width:2.25;"/>
    <path clip-path="url(#pf1251b25bc)" d="M 656.966834 200.51 
L 656.966834 200.51274 
" style="fill:none;stroke:#4c72b0;stroke-width:2.25;"/>
    <path clip-path="url(#pf1251b25bc)" d="M 664.96558 200.51 
L 664.96558 200.510477 
" style="fill:none;stroke:#4c72b0;stroke-width:2.25;"/>
    <path clip-path="url(#pf1251b25bc)" d="M 672.964326 200.51 
L 672.964326 200.509734 
" style="fill:none;stroke:#4c72b0;stroke-width:2.25;"/>
    <path clip-path="url(#pf1251b25bc)" d="M 680.963072 200.51 
L 680.963072 200.509979 
" style="fill:none;stroke:#4c72b0;stroke-width:2.25;"/>
    <path clip-path="url(#pf1251b25bc)" d="M 688.961818 200.51 
L 688.961818 200.510012 
" style="fill:none;stroke:#4c72b0;stroke-width:2.25;"/>
   </g>
   <g id="line2d_11">
    <defs>
     <path d="M 0 4.5 
C 1.193414 4.5 2.338109 4.025852 3.181981 3.181981 
C 4.025852 2.338109 4.5 1.193414 4.5 0 
C 4.5 -1.193414 4.025852 -2.338109 3.181981 -3.181981 
C 2.338109 -4.025852 1.193414 -4.5 0 -4.5 
C -1.193414 -4.5 -2.338109 -4.025852 -3.181981 -3.181981 
C -4.025852 -2.338109 -4.5 -1.193414 -4.5 0 
C -4.5 1.193414 -4.025852 2.338109 -3.181981 3.181981 
C -2.338109 4.025852 -1.193414 4.5 0 4.5 
z
" id="m63aeb3e3c6" style="stroke:#4c72b0;"/>
    </defs>
    <g clip-path="url(#pf1251b25bc)">
     <use style="fill:#4c72b0;stroke:#4c72b0;" x="456.998182" xlink:href="#m63aeb3e3c6" y="200.482676"/>
     <use style="fill:#4c72b0;stroke:#4c72b0;" x="464.996928" xlink:href="#m63aeb3e3c6" y="200.463802"/>
     <use style="fill:#4c72b0;stroke:#4c72b0;" x="472.995674" xlink:href="#m63aeb3e3c6" y="200.790646"/>
     <use style="fill:#4c72b0;stroke:#4c72b0;" x="480.99442" xlink:href="#m63aeb3e3c6" y="201.045875"/>
     <use style="fill:#4c72b0;stroke:#4c72b0;" x="488.993166" xlink:href="#m63aeb3e3c6" y="199.204672"/>
     <use style="fill:#4c72b0;stroke:#4c72b0;" x="496.991912" xlink:href="#m63aeb3e3c6" y="197.49413"/>
     <use style="fill:#4c72b0;stroke:#4c72b0;" x="504.990658" xlink:href="#m63aeb3e3c6" y="204.139319"/>
     <use style="fill:#4c72b0;stroke:#4c72b0;" x="512.989404" xlink:href="#m63aeb3e3c6" y="212.352948"/>
     <use style="fill:#4c72b0;stroke:#4c72b0;" x="520.98815" xlink:href="#m63aeb3e3c6" y="193.804437"/>
     <use style="fill:#4c72b0;stroke:#4c72b0;" x="528.986897" xlink:href="#m63aeb3e3c6" y="146.195812"/>
     <use style="fill:#4c72b0;stroke:#4c72b0;" x="536.985643" xlink:href="#m63aeb3e3c6" y="300.268055"/>
     <use style="fill:#4c72b0;stroke:#4c72b0;" x="544.984389" xlink:href="#m63aeb3e3c6" y="144.081455"/>
     <use style="fill:#4c72b0;stroke:#4c72b0;" x="552.983135" xlink:href="#m63aeb3e3c6" y="192.517211"/>
     <use style="fill:#4c72b0;stroke:#4c72b0;" x="560.981881" xlink:href="#m63aeb3e3c6" y="214.110493"/>
     <use style="fill:#4c72b0;stroke:#4c72b0;" x="568.980627" xlink:href="#m63aeb3e3c6" y="205.829382"/>
     <use style="fill:#4c72b0;stroke:#4c72b0;" x="576.979373" xlink:href="#m63aeb3e3c6" y="196.300261"/>
     <use style="fill:#4c72b0;stroke:#4c72b0;" x="584.978119" xlink:href="#m63aeb3e3c6" y="197.964378"/>
     <use style="fill:#4c72b0;stroke:#4c72b0;" x="592.976865" xlink:href="#m63aeb3e3c6" y="201.690088"/>
     <use style="fill:#4c72b0;stroke:#4c72b0;" x="600.975611" xlink:href="#m63aeb3e3c6" y="201.381137"/>
     <use style="fill:#4c72b0;stroke:#4c72b0;" x="608.974357" xlink:href="#m63aeb3e3c6" y="200.196722"/>
     <use style="fill:#4c72b0;stroke:#4c72b0;" x="616.973103" xlink:href="#m63aeb3e3c6" y="200.29592"/>
     <use style="fill:#4c72b0;stroke:#4c72b0;" x="624.97185" xlink:href="#m63aeb3e3c6" y="200.592141"/>
     <use style="fill:#4c72b0;stroke:#4c72b0;" x="632.970596" xlink:href="#m63aeb3e3c6" y="200.548891"/>
     <use style="fill:#4c72b0;stroke:#4c72b0;" x="640.969342" xlink:href="#m63aeb3e3c6" y="200.491917"/>
     <use style="fill:#4c72b0;stroke:#4c72b0;" x="648.968088" xlink:href="#m63aeb3e3c6" y="200.504689"/>
     <use style="fill:#4c72b0;stroke:#4c72b0;" x="656.966834" xlink:href="#m63aeb3e3c6" y="200.51274"/>
     <use style="fill:#4c72b0;stroke:#4c72b0;" x="664.96558" xlink:href="#m63aeb3e3c6" y="200.510477"/>
     <use style="fill:#4c72b0;stroke:#4c72b0;" x="672.964326" xlink:href="#m63aeb3e3c6" y="200.509734"/>
     <use style="fill:#4c72b0;stroke:#4c72b0;" x="680.963072" xlink:href="#m63aeb3e3c6" y="200.509979"/>
     <use style="fill:#4c72b0;stroke:#4c72b0;" x="688.961818" xlink:href="#m63aeb3e3c6" y="200.510012"/>
    </g>
   </g>
   <g id="line2d_12">
    <path clip-path="url(#pf1251b25bc)" d="M 456.998182 200.51 
L 688.961818 200.51 
" style="fill:none;stroke:#c44e52;stroke-linecap:round;stroke-width:2.25;"/>
   </g>
   <g id="patch_8">
    <path d="M 445.4 303.58 
L 445.4 97.44 
" style="fill:none;stroke:#262626;stroke-linecap:square;stroke-linejoin:miter;stroke-width:1.875;"/>
   </g>
   <g id="patch_9">
    <path d="M 700.56 303.58 
L 700.56 97.44 
" style="fill:none;stroke:#262626;stroke-linecap:square;stroke-linejoin:miter;stroke-width:1.875;"/>
   </g>
   <g id="patch_10">
    <path d="M 445.4 303.58 
L 700.56 303.58 
" style="fill:none;stroke:#262626;stroke-linecap:square;stroke-linejoin:miter;stroke-width:1.875;"/>
   </g>
   <g id="patch_11">
    <path d="M 445.4 97.44 
L 700.56 97.44 
" style="fill:none;stroke:#262626;stroke-linecap:square;stroke-linejoin:miter;stroke-width:1.875;"/>
   </g>
   <g id="text_11">
    <!-- $h_\psi$ -->
    <g style="fill:#262626;" transform="translate(557.16 91.44)scale(0.28 -0.28)">
     <defs>
      <path d="M 55.71875 33.015625 
L 49.3125 0 
L 40.28125 0 
L 46.6875 32.671875 
Q 47.125 34.96875 47.359375 36.71875 
Q 47.609375 38.484375 47.609375 39.5 
Q 47.609375 43.609375 45.015625 45.890625 
Q 42.4375 48.1875 37.796875 48.1875 
Q 30.5625 48.1875 25.265625 43.296875 
Q 19.96875 38.421875 18.40625 30.328125 
L 12.5 0 
L 3.515625 0 
L 18.3125 75.984375 
L 27.296875 75.984375 
L 21.484375 46.09375 
Q 24.90625 50.6875 30.21875 53.34375 
Q 35.546875 56 41.40625 56 
Q 48.640625 56 52.609375 52.09375 
Q 56.59375 48.1875 56.59375 41.109375 
Q 56.59375 39.359375 56.375 37.359375 
Q 56.15625 35.359375 55.71875 33.015625 
z
" id="DejaVuSans-Oblique-104"/>
     </defs>
     <use transform="translate(0 0.015625)" xlink:href="#DejaVuSans-Oblique-104"/>
     <use transform="translate(63.378906 -16.390625)scale(0.7)" xlink:href="#DejaVuSans-Oblique-968"/>
    </g>
   </g>
  </g>
  <g id="text_12">
   <!-- Coif5 -->
   <g style="fill:#262626;" transform="translate(321.35625 29.995313)scale(0.3 -0.3)">
    <defs>
     <path d="M 64.40625 67.28125 
L 64.40625 56.890625 
Q 59.421875 61.53125 53.78125 63.8125 
Q 48.140625 66.109375 41.796875 66.109375 
Q 29.296875 66.109375 22.65625 58.46875 
Q 16.015625 50.828125 16.015625 36.375 
Q 16.015625 21.96875 22.65625 14.328125 
Q 29.296875 6.6875 41.796875 6.6875 
Q 48.140625 6.6875 53.78125 8.984375 
Q 59.421875 11.28125 64.40625 15.921875 
L 64.40625 5.609375 
Q 59.234375 2.09375 53.4375 0.328125 
Q 47.65625 -1.421875 41.21875 -1.421875 
Q 24.65625 -1.421875 15.125 8.703125 
Q 5.609375 18.84375 5.609375 36.375 
Q 5.609375 53.953125 15.125 64.078125 
Q 24.65625 74.21875 41.21875 74.21875 
Q 47.75 74.21875 53.53125 72.484375 
Q 59.328125 70.75 64.40625 67.28125 
z
" id="DejaVuSans-67"/>
     <path d="M 9.421875 54.6875 
L 18.40625 54.6875 
L 18.40625 0 
L 9.421875 0 
z
M 9.421875 75.984375 
L 18.40625 75.984375 
L 18.40625 64.59375 
L 9.421875 64.59375 
z
" id="DejaVuSans-105"/>
     <path d="M 37.109375 75.984375 
L 37.109375 68.5 
L 28.515625 68.5 
Q 23.6875 68.5 21.796875 66.546875 
Q 19.921875 64.59375 19.921875 59.515625 
L 19.921875 54.6875 
L 34.71875 54.6875 
L 34.71875 47.703125 
L 19.921875 47.703125 
L 19.921875 0 
L 10.890625 0 
L 10.890625 47.703125 
L 2.296875 47.703125 
L 2.296875 54.6875 
L 10.890625 54.6875 
L 10.890625 58.5 
Q 10.890625 67.625 15.140625 71.796875 
Q 19.390625 75.984375 28.609375 75.984375 
z
" id="DejaVuSans-102"/>
    </defs>
    <use xlink:href="#DejaVuSans-67"/>
    <use x="69.824219" xlink:href="#DejaVuSans-111"/>
    <use x="131.005859" xlink:href="#DejaVuSans-105"/>
    <use x="158.789062" xlink:href="#DejaVuSans-102"/>
    <use x="193.994141" xlink:href="#DejaVuSans-53"/>
   </g>
  </g>
 </g>
 <defs>
  <clipPath id="pdddeaba5d4">
   <rect height="206.14" width="255.16" x="70.28" y="97.44"/>
  </clipPath>
  <clipPath id="pf1251b25bc">
   <rect height="206.14" width="255.16" x="445.4" y="97.44"/>
  </clipPath>
 </defs>
</svg>
